<svg width="366" height="147" viewBox="0 0 366 147" fill="none" xmlns="http://www.w3.org/2000/svg">
<g clip-path="url(#clip0_1_65)">
<path d="M182.146 39.6721C181.191 39.6584 180.245 39.4839 179.347 39.1557C176.113 38.0017 174.418 35.336 174.418 31.8744H178.518C178.676 34.1409 179.78 35.8923 182.224 35.8923C184.039 35.8923 185.379 34.7774 185.379 32.8678C185.379 28.2536 175.404 30.6404 175.404 22.8426C175.404 19.0637 178.676 16.4771 182.265 16.4771C186.011 16.4771 188.889 19.1031 188.968 22.9228H184.867C184.67 21.3326 183.723 20.2583 182.067 20.2583C180.687 20.2583 179.504 21.1328 179.504 22.6057C179.504 24.5547 181.397 24.993 182.895 25.4705C186.483 26.5842 189.48 28.3749 189.48 32.6324C189.48 36.9677 186.326 39.6721 182.146 39.6721Z" fill="#CA9C56"/>
<path d="M218.365 39.115H216.079L211.347 24.2758H211.268L206.536 39.115H204.288L196.125 17.0752H200.502L205.353 31.3969H205.432L209.966 17.0752H212.647L217.181 31.3969H217.26L222.07 17.0752H226.447L218.365 39.115Z" fill="#CA9C56"/>
<path d="M235.016 14.5291V9.6748H239.117V14.5291H235.016ZM235.016 39.1152V17.0754H239.117V39.1152H235.016Z" fill="#CA9C56"/>
<path d="M256.207 39.6721C255.252 39.6584 254.306 39.4839 253.408 39.1557C250.174 38.0017 248.479 35.336 248.479 31.8744H252.579C252.737 34.1409 253.84 35.8923 256.286 35.8923C258.1 35.8923 259.44 34.7774 259.44 32.8678C259.44 28.2536 249.464 30.6404 249.464 22.8426C249.464 19.0637 252.737 16.4771 256.326 16.4771C260.072 16.4771 262.951 19.1031 263.028 22.9228H258.928C258.731 21.3326 257.784 20.2583 256.128 20.2583C254.749 20.2583 253.565 21.1328 253.565 22.6057C253.565 24.5547 255.457 24.993 256.956 25.4705C260.544 26.5842 263.541 28.3749 263.541 32.6324C263.541 36.9677 260.386 39.6721 256.207 39.6721Z" fill="#CA9C56"/>
<path d="M279.232 39.6721C278.277 39.6583 277.33 39.4838 276.432 39.1557C273.201 38.0017 271.504 35.336 271.504 31.8744H275.604C275.762 34.1409 276.866 35.8923 279.311 35.8923C281.125 35.8923 282.466 34.7774 282.466 32.8678C282.466 28.2536 272.489 30.6404 272.489 22.8426C272.489 19.0637 275.762 16.4771 279.352 16.4771C283.097 16.4771 285.975 19.1031 286.052 22.9228H281.951C281.756 21.3326 280.809 20.2583 279.153 20.2583C277.773 20.2583 276.588 21.1328 276.588 22.6057C276.588 24.5547 278.481 24.993 279.982 25.4705C283.569 26.5842 286.566 28.3749 286.566 32.6324C286.566 36.9677 283.411 39.6721 279.232 39.6721Z" fill="#CA9C56"/>
<path d="M196.381 86.8677H194.093L189.361 72.0272H189.282L184.55 86.8677H182.302L174.143 64.8262H178.519L183.369 79.15H183.448L187.982 64.8262H190.663L195.199 79.15H195.277L200.088 64.8262H204.465L196.381 86.8677Z" fill="#CA9C56"/>
<path d="M230.161 86.8676V83.4456H230.082C228.544 86.1108 225.666 87.4243 222.67 87.4243C216.124 87.4243 211.076 82.57 211.076 75.9261C211.076 69.2431 216.045 64.2305 222.67 64.2305C225.587 64.2305 228.467 65.4241 230.082 67.9296H230.161V64.8261H234.261V86.8671L230.161 86.8676ZM222.67 68.0093C218.333 68.0093 215.178 71.5903 215.178 75.8874C215.178 80.0244 218.451 83.645 222.63 83.645C223.635 83.6423 224.63 83.4392 225.557 83.0475C226.484 82.6557 227.326 82.0829 228.033 81.3621C228.74 80.6412 229.299 79.7865 229.678 78.847C230.057 77.9075 230.248 76.9017 230.24 75.8874C230.24 71.4704 227.125 68.0093 222.67 68.0093Z" fill="#CA9C56"/>
<path d="M250.068 68.6065V86.8667H245.967V68.6065H243.01V64.8267H245.967V57.4272H250.068V64.8267H253.656V68.6067L250.068 68.6065Z" fill="#CA9C56"/>
<path d="M271.616 87.4245C265.109 87.4245 260.418 82.2524 260.418 75.8074C260.418 69.3624 265.19 64.2305 271.656 64.2305C276.347 64.2305 281.16 67.4132 282.381 72.1475H277.848C276.624 69.5608 274.612 68.0093 271.696 68.0093C267.201 68.0093 264.52 71.4709 264.52 75.8072C264.52 79.985 267.24 83.6445 271.616 83.6445C274.417 83.6445 276.663 82.1336 277.807 79.5861H282.381C280.763 84.3215 276.624 87.4245 271.616 87.4245Z" fill="#CA9C56"/>
<path d="M307.121 86.8667V74.8923C307.121 71.1528 306.017 68.0092 301.679 68.0092C297.657 68.0092 295.922 71.1526 295.922 74.8517V86.8667H291.822V57.4272H295.924V67.1741H296.003C297.422 65.0256 299.668 64.2306 302.115 64.2306C305.229 64.2306 308.146 65.4631 309.843 68.1696C310.908 69.8407 311.223 71.8699 311.223 73.8187V86.8667H307.121Z" fill="#CA9C56"/>
<path d="M342.943 77.6373H324.843C325.671 81.0593 328.432 83.6447 332.022 83.6447C334.583 83.6447 337.069 82.2527 338.249 79.9444H342.35C340.697 84.4407 336.634 87.4248 331.865 87.4248C325.633 87.4248 320.744 81.9743 320.744 75.8077C320.744 69.4422 325.556 64.231 331.942 64.231C338.134 64.231 343.062 69.3637 343.062 75.5685C343.062 76.2598 343.022 76.9506 342.943 77.6373V77.6373ZM331.902 68.0096C328.353 68.0096 325.082 70.8342 324.844 74.4553H338.962C338.723 70.834 335.452 68.0096 331.902 68.0096Z" fill="#CA9C56"/>
<path d="M358.665 87.4245C357.71 87.411 356.764 87.2361 355.866 86.9069C352.632 85.7529 350.938 83.0873 350.938 79.6257H355.038C355.196 81.8936 356.299 83.6435 358.744 83.6435C360.557 83.6435 361.898 82.5298 361.898 80.6202C361.898 76.0051 351.925 78.3917 351.925 70.595C351.925 66.8149 355.196 64.2295 358.783 64.2295C362.529 64.2295 365.406 66.8541 365.488 70.6735H361.388C361.188 69.0829 360.243 68.0084 358.587 68.0084C357.205 68.0084 356.025 68.884 356.025 70.3558C356.025 72.3048 357.918 72.7431 359.414 73.2205C363.003 74.3354 365.999 76.1249 365.999 80.3825C365.999 84.719 362.845 87.4245 358.665 87.4245Z" fill="#CA9C56"/>
<path d="M194.213 134.619V131.197H194.134C192.596 133.863 189.718 135.176 186.72 135.176C180.176 135.176 175.129 130.323 175.129 123.679C175.129 116.994 180.098 111.981 186.72 111.981C189.639 111.981 192.517 113.175 194.134 115.681H194.213V112.578H198.313V134.619H194.213ZM186.721 115.762C182.384 115.762 179.23 119.343 179.23 123.638C179.23 127.777 182.503 131.397 186.683 131.397C187.688 131.394 188.683 131.191 189.61 130.799C190.537 130.407 191.378 129.834 192.085 129.113C192.792 128.392 193.351 127.537 193.73 126.598C194.109 125.658 194.3 124.653 194.292 123.638C194.291 119.223 191.176 115.762 186.721 115.762Z" fill="#CA9C56"/>
<path d="M224.778 134.619V132.232H224.699C223.437 134.38 220.599 135.175 218.272 135.175C215.986 135.175 213.777 134.5 212.042 132.987C209.637 130.88 209.164 127.538 209.164 124.514V112.578H213.265V124.514C213.265 128.413 214.409 131.397 218.707 131.397C222.886 131.397 224.423 128.214 224.423 124.395V112.578H228.525V134.619H224.778Z" fill="#CA9C56"/>
<path d="M249.43 135.176C242.924 135.176 238.232 130.004 238.232 123.559C238.232 117.114 243.004 111.982 249.469 111.982C254.162 111.982 258.972 115.165 260.194 119.899H255.66C254.438 117.313 252.426 115.762 249.508 115.762C245.013 115.762 242.331 119.224 242.331 123.559C242.331 127.736 245.052 131.397 249.429 131.397C252.229 131.397 254.476 129.885 255.62 127.339H260.193C258.578 132.073 254.438 135.176 249.43 135.176Z" fill="#CA9C56"/>
<path d="M274.221 116.358V134.619H270.12V116.358H267.162V112.578H270.12V105.179H274.221V112.578H277.809V116.358L274.221 116.358Z" fill="#CA9C56"/>
<path d="M286.273 110.032V105.179H290.375V110.032H286.273ZM286.273 134.619V112.578H290.375V134.619H286.273Z" fill="#CA9C56"/>
<path d="M311.812 135.176C305.385 135.176 300.021 129.965 300.021 123.44C300.021 116.955 305.504 111.982 311.812 111.982C318.198 111.982 323.601 116.995 323.601 123.52C323.601 129.805 318.437 135.176 311.812 135.176ZM311.812 115.762C310.8 115.764 309.798 115.968 308.864 116.361C307.929 116.754 307.081 117.329 306.367 118.053C305.653 118.777 305.087 119.636 304.702 120.581C304.317 121.525 304.12 122.537 304.123 123.559C304.116 125.626 304.921 127.612 306.362 129.081C307.804 130.55 309.764 131.383 311.812 131.397C316.109 131.397 319.501 127.816 319.501 123.519C319.503 122.5 319.305 121.49 318.92 120.548C318.534 119.606 317.968 118.75 317.253 118.029C316.539 117.309 315.691 116.737 314.757 116.348C313.823 115.959 312.823 115.76 311.812 115.762V115.762Z" fill="#CA9C56"/>
<path d="M348.559 134.619V122.645C348.559 118.905 347.454 115.763 343.117 115.763C339.094 115.763 337.36 118.905 337.36 122.605V134.619H333.26V112.578H337.085V114.925H337.162C338.74 112.817 341.028 111.982 343.552 111.982C346.666 111.982 349.584 113.214 351.28 115.921C352.345 117.592 352.659 119.621 352.659 121.57V134.619H348.559Z" fill="#CA9C56"/>
<path opacity="0.76" d="M0.111328 83.0403H0.338939C0.251711 82.2944 0.175842 81.5444 0.111328 80.7905" fill="#CA9C56"/>
<path d="M72.8242 25.6738C46.6885 25.6738 25.4258 47.1283 25.4258 73.4991C25.4258 99.87 46.6889 121.325 72.8249 121.325C98.9609 121.325 120.224 99.87 120.224 73.4991C120.224 47.1283 98.96 25.6738 72.8242 25.6738ZM72.8242 118.373C48.3 118.373 28.3493 98.2425 28.3493 73.4979C28.3493 48.7533 48.3 28.6243 72.8242 28.6243C97.3485 28.6243 117.299 48.7552 117.299 73.4991C117.299 98.243 97.3475 118.374 72.8242 118.374V118.373Z" fill="#CA9C56"/>
<path d="M75.4648 68.2418C81.7519 62.7007 88.0995 57.1036 94.4495 51.5068L94.7112 51.7933C89.1638 58.1946 83.6166 64.5947 78.1418 70.9123L78.0273 70.7993C77.4627 69.6949 76.5655 68.7995 75.4648 68.2418V68.2418Z" fill="#CA9C56"/>
<path d="M70.1822 68.2501C69.0649 68.8334 68.1603 69.76 67.5992 70.896C64.1433 66.6227 60.7864 62.4736 57.4297 58.3247L57.7238 58.043C61.8705 61.4401 66.0233 64.8425 70.1822 68.2501Z" fill="#CA9C56"/>
<path d="M73.2196 69.0977C73.1709 69.0925 73.1222 69.0925 73.0734 69.0898C72.9982 69.0855 72.9239 69.0786 72.8468 69.0786C72.833 69.0786 72.8193 69.0803 72.8058 69.0803C72.7923 69.0803 72.7845 69.0786 72.7734 69.0803C72.7384 69.0803 72.7041 69.0863 72.6691 69.0882C71.5392 69.1332 70.4705 69.6177 69.6868 70.4401C68.9031 71.2625 68.4652 72.359 68.4648 73.4999C68.4661 73.679 68.4778 73.8579 68.4999 74.0356C68.5886 75.0332 69.0237 75.9672 69.7285 76.6726C70.4333 77.378 71.3624 77.8096 72.3518 77.8911C72.3721 77.8937 72.392 77.8971 72.4124 77.8987C72.4978 77.9066 72.5841 77.909 72.6714 77.9116C72.7296 77.9143 72.7876 77.9212 72.8468 77.9212C72.8579 77.9212 72.869 77.9195 72.8801 77.9195C72.8912 77.9195 72.9059 77.9212 72.9196 77.9195C73.947 77.9334 74.9443 77.5691 75.7247 76.8948C76.5051 76.2204 77.0153 75.2822 77.1596 74.2557C77.2669 73.652 77.2478 73.0324 77.1036 72.4365C76.9594 71.8407 76.6932 71.282 76.3221 70.7962C75.9511 70.3104 75.4834 69.9083 74.9491 69.6158C74.4148 69.3233 73.8258 69.1468 73.2199 69.0977H73.2196Z" fill="#CA9C56"/>
<path d="M71.9442 128.731C64.0025 128.604 56.1834 126.733 49.0312 123.247C41.8789 119.762 35.5652 114.746 30.5293 108.549H30.3788C25.7062 102.801 22.2292 96.1619 20.1556 89.0283H1.625C6.73187 112.969 23.3926 132.562 45.4339 141.597C45.71 141.71 45.9845 141.824 46.262 141.935C46.7983 142.146 47.337 142.352 47.8781 142.553C48.4149 142.751 48.9563 142.938 49.4983 143.126C49.8693 143.252 50.2363 143.386 50.6104 143.508C51.5518 143.813 52.5032 144.094 53.4619 144.361C53.7082 144.429 53.9552 144.494 54.2015 144.559C55.1464 144.812 56.0983 145.047 57.0573 145.263C57.1241 145.278 57.1908 145.294 57.2582 145.311C62.0844 146.376 67.0055 146.943 71.9454 147.004L71.9442 128.731Z" fill="#CA9C56"/>
<path d="M145.2 64.6772H123.094C124.102 70.4698 124.11 76.3947 123.117 82.19H126.918C122.816 108.276 100.558 128.331 73.6621 128.737V146.992C113.471 146.559 145.726 113.766 145.726 73.499C145.724 70.5505 145.549 67.6047 145.2 64.6772Z" fill="#CA9C56"/>
<path d="M71.9868 18.2616V0.00878906C71.8212 0.0140411 71.6556 0.018338 71.49 0.020964C71.4663 0.020964 71.4426 0.0235904 71.419 0.0235904C70.2502 0.0468268 69.0883 0.0971193 67.9333 0.174468C67.8387 0.180436 67.7441 0.18903 67.6494 0.195954C66.561 0.274496 65.4802 0.372852 64.4063 0.498663C64.2215 0.520149 64.0379 0.54641 63.854 0.570283C62.8776 0.692751 61.9073 0.82835 60.9438 0.988776C60.6376 1.03963 60.335 1.09931 60.0308 1.1535C59.1979 1.30366 58.3669 1.45979 57.5436 1.63836C57.0862 1.73672 56.6355 1.84892 56.1814 1.95587C55.5206 2.11296 54.8588 2.26813 54.2046 2.44336C53.5644 2.61333 52.9314 2.80313 52.2981 2.99029C51.8416 3.1266 51.3824 3.256 50.9293 3.40019C50.0673 3.67377 49.2165 3.97123 48.3695 4.27585C48.153 4.35439 47.9325 4.42601 47.7172 4.50623C20.2562 14.679 0.555783 41.0463 0 72.1526H0.0418794C0.0343081 72.6021 0.00852029 73.0471 0.00852029 73.4992C0.00852029 73.9514 0.0205817 74.3981 0.0281531 74.8469H0C0.0435352 77.3184 0.221464 79.7573 0.50113 82.1635H22.55C21.5617 76.3767 21.5709 70.4611 22.5772 64.6774H18.7722C22.927 38.6618 45.1455 18.6758 71.9868 18.2616Z" fill="#CA9C56"/>
<path d="M136.647 38.0517H136.678C124.383 15.6087 100.797 0.310588 73.7051 0V18.2676C81.5632 18.3899 89.3027 20.2206 96.3959 23.6348C103.489 27.049 109.769 31.9665 114.808 38.0519H114.961C119.714 43.7902 123.265 50.4416 125.397 57.6039H143.947C142.457 50.7666 139.998 44.1816 136.647 38.0517Z" fill="#CA9C56"/>
</g>
<defs>
<clipPath id="clip0_1_65">
<rect width="366" height="147" fill="white"/>
</clipPath>
</defs>
</svg>
